<svg
  width="24"
  height="24"
  viewBox="0 0 24 24"
  fill="none"
  xmlns="http://www.w3.org/2000/svg"
>
  <!-- Left Up Arrow -->
  <path
    d="M6.75 3.25C7.16421 2.83579 7.83579 2.83579 8.25 3.25L12.25 7.25C12.6642 7.66421 12.6642 8.33579 12.25 8.75C11.8358 9.16421 11.1642 9.16421 10.75 8.75L8.5 6.5V19C8.5 19.5523 8.05228 20 7.5 20C6.94772 20 6.5 19.5523 6.5 19V6.5L4.25 8.75C3.83579 9.16421 3.16421 9.16421 2.75 8.75C2.33579 8.33579 2.33579 7.66421 2.75 7.25L6.75 3.25Z"
    fill="currentColor"
  />

  <!-- Right Down Arrow -->
  <path
    d="M16.5 4C16.5 3.44772 16.9477 3 17.5 3C18.0523 3 18.5 3.44772 18.5 4V16.5L20.75 14.25C21.1642 13.8358 21.8358 13.8358 22.25 14.25C22.6642 14.6642 22.6642 15.3358 22.25 15.75L18.25 19.75C17.8358 20.1642 17.1642 20.1642 16.75 19.75L12.75 15.75C12.3358 15.3358 12.3358 14.6642 12.75 14.25C13.1642 13.8358 13.8358 13.8358 14.25 14.25L16.5 16.5V4Z"
    fill="currentColor"
  />
</svg>