<svg width="35" height="35" viewBox="0 0 35 35" fill="none" xmlns="http://www.w3.org/2000/svg">
<path d="M11.3753 2.91669H23.6253C28.292 2.91669 32.0837 6.70835 32.0837 11.375V23.625C32.0837 25.8683 31.1925 28.0197 29.6063 29.606C28.02 31.1922 25.8686 32.0834 23.6253 32.0834H11.3753C6.70866 32.0834 2.91699 28.2917 2.91699 23.625V11.375C2.91699 9.13173 3.80814 6.98032 5.39438 5.39408C6.98063 3.80783 9.13204 2.91669 11.3753 2.91669ZM11.0837 5.83335C9.69127 5.83335 8.35591 6.38648 7.37135 7.37104C6.38678 8.35561 5.83366 9.69097 5.83366 11.0834V23.9167C5.83366 26.8188 8.18158 29.1667 11.0837 29.1667H23.917C25.3094 29.1667 26.6447 28.6136 27.6293 27.629C28.6139 26.6444 29.167 25.3091 29.167 23.9167V11.0834C29.167 8.18127 26.8191 5.83335 23.917 5.83335H11.0837ZM25.1566 8.02085C25.64 8.02085 26.1037 8.21291 26.4456 8.55477C26.7874 8.89664 26.9795 9.3603 26.9795 9.84377C26.9795 10.3272 26.7874 10.7909 26.4456 11.1328C26.1037 11.4746 25.64 11.6667 25.1566 11.6667C24.6731 11.6667 24.2094 11.4746 23.8676 11.1328C23.5257 10.7909 23.3337 10.3272 23.3337 9.84377C23.3337 9.3603 23.5257 8.89664 23.8676 8.55477C24.2094 8.21291 24.6731 8.02085 25.1566 8.02085ZM17.5003 10.2084C19.4342 10.2084 21.2889 10.9766 22.6563 12.344C24.0238 13.7115 24.792 15.5661 24.792 17.5C24.792 19.4339 24.0238 21.2886 22.6563 22.656C21.2889 24.0235 19.4342 24.7917 17.5003 24.7917C15.5665 24.7917 13.7118 24.0235 12.3443 22.656C10.9769 21.2886 10.2087 19.4339 10.2087 17.5C10.2087 15.5661 10.9769 13.7115 12.3443 12.344C13.7118 10.9766 15.5665 10.2084 17.5003 10.2084ZM17.5003 13.125C16.34 13.125 15.2272 13.586 14.4067 14.4064C13.5863 15.2269 13.1253 16.3397 13.1253 17.5C13.1253 18.6603 13.5863 19.7731 14.4067 20.5936C15.2272 21.4141 16.34 21.875 17.5003 21.875C18.6606 21.875 19.7734 21.4141 20.5939 20.5936C21.4144 19.7731 21.8753 18.6603 21.8753 17.5C21.8753 16.3397 21.4144 15.2269 20.5939 14.4064C19.7734 13.586 18.6606 13.125 17.5003 13.125Z" fill="black"/>
</svg>
