<svg width="30" height="19" viewBox="0 0 30 19" fill="none" xmlns="http://www.w3.org/2000/svg">
<path fill-rule="evenodd" clip-rule="evenodd" d="M0 1.40625C0 1.03329 0.148158 0.675604 0.411881 0.411881C0.675604 0.148158 1.03329 0 1.40625 0H28.5938C28.9667 0 29.3244 0.148158 29.5881 0.411881C29.8518 0.675604 30 1.03329 30 1.40625C30 1.77921 29.8518 2.1369 29.5881 2.40062C29.3244 2.66434 28.9667 2.8125 28.5938 2.8125H1.40625C1.03329 2.8125 0.675604 2.66434 0.411881 2.40062C0.148158 2.1369 0 1.77921 0 1.40625ZM0 9.375C0 9.00204 0.148158 8.64435 0.411881 8.38063C0.675604 8.11691 1.03329 7.96875 1.40625 7.96875H28.5938C28.9667 7.96875 29.3244 8.11691 29.5881 8.38063C29.8518 8.64435 30 9.00204 30 9.375C30 9.74796 29.8518 10.1056 29.5881 10.3694C29.3244 10.6331 28.9667 10.7812 28.5938 10.7812H1.40625C1.03329 10.7812 0.675604 10.6331 0.411881 10.3694C0.148158 10.1056 0 9.74796 0 9.375ZM1.40625 15.9375C1.03329 15.9375 0.675604 16.0857 0.411881 16.3494C0.148158 16.6131 0 16.9708 0 17.3438C0 17.7167 0.148158 18.0744 0.411881 18.3381C0.675604 18.6018 1.03329 18.75 1.40625 18.75H28.5938C28.9667 18.75 29.3244 18.6018 29.5881 18.3381C29.8518 18.0744 30 17.7167 30 17.3438C30 16.9708 29.8518 16.6131 29.5881 16.3494C29.3244 16.0857 28.9667 15.9375 28.5938 15.9375H1.40625Z" fill="black"/>
</svg>
