<svg width="155" height="155" viewBox="0 0 155 155" fill="none" xmlns="http://www.w3.org/2000/svg">
<path d="M22.6042 87.1876V151.771M132.396 87.1876V151.771M35.5209 29.0626V41.9792M35.5209 29.0626L22.6042 16.1459L35.5209 3.22925L48.4375 16.1459L35.5209 29.0626ZM119.479 29.0626V41.9792M119.479 29.0626L106.563 16.1459L119.479 3.22925L132.396 16.1459L119.479 29.0626ZM6.45835 87.1876L51.6667 41.9792M38.75 87.1876L83.9584 41.9792M71.0417 87.1876L116.25 41.9792M103.333 87.1876L148.542 41.9792M9.68752 151.771H35.5209M119.479 151.771H145.313M151.771 41.9792H3.22919V87.1876H151.771V41.9792Z" stroke="black" stroke-width="10" stroke-miterlimit="10" stroke-linecap="round" stroke-linejoin="round"/>
</svg>
