<svg width="88" height="88" viewBox="0 0 88 88" fill="none" xmlns="http://www.w3.org/2000/svg">
<path d="M44.1463 9.16667L34.943 18.3333H53.2763L44.1463 9.16667ZM14.6663 25.6667V73.3333H73.333V25.6667H14.6663ZM43.9997 0L62.333 18.3333H73.333C75.2779 18.3333 77.1432 19.1059 78.5185 20.4812C79.8937 21.8565 80.6663 23.7217 80.6663 25.6667V73.3333C80.6663 75.2783 79.8937 77.1435 78.5185 78.5188C77.1432 79.894 75.2779 80.6667 73.333 80.6667H14.6663C12.7214 80.6667 10.8562 79.894 9.48089 78.5188C8.10562 77.1435 7.33301 75.2783 7.33301 73.3333V25.6667C7.33301 23.7217 8.10562 21.8565 9.48089 20.4812C10.8562 19.1059 12.7214 18.3333 14.6663 18.3333H25.6663L43.9997 0ZM25.6663 66V51.3333H43.9997V66H25.6663ZM51.333 62.3333V36.6667H65.9997V62.3333H51.333ZM21.9997 44V33H40.333V44H21.9997Z" fill="black"/>
</svg>
