<svg width="95" height="95" viewBox="0 0 95 95" fill="none" xmlns="http://www.w3.org/2000/svg">
<path d="M67.2913 71.2501C69.391 71.2501 71.4046 72.0842 72.8893 73.5688C74.3739 75.0535 75.208 77.0671 75.208 79.1667C75.208 81.2664 74.3739 83.28 72.8893 84.7647C71.4046 86.2493 69.391 87.0834 67.2913 87.0834C65.1917 87.0834 63.1781 86.2493 61.6934 84.7647C60.2088 83.28 59.3747 81.2664 59.3747 79.1667C59.3747 74.773 62.8976 71.2501 67.2913 71.2501ZM3.95801 7.91675H16.9018L20.6226 15.8334H79.1663C80.2162 15.8334 81.223 16.2505 81.9653 16.9928C82.7076 17.7351 83.1247 18.7419 83.1247 19.7917C83.1247 20.4647 82.9268 21.1376 82.6497 21.7709L68.4788 47.3813C67.133 49.7959 64.5205 51.4584 61.5518 51.4584H32.0622L28.4997 57.9105L28.3809 58.3855C28.3809 58.648 28.4852 58.8997 28.6708 59.0852C28.8563 59.2708 29.1081 59.3751 29.3705 59.3751H75.208V67.2918H27.708C25.6084 67.2918 23.5947 66.4577 22.1101 64.973C20.6254 63.4883 19.7913 61.4747 19.7913 59.3751C19.7913 57.9897 20.1476 56.6834 20.7413 55.5751L26.1247 45.8772L11.8747 15.8334H3.95801V7.91675ZM27.708 71.2501C29.8076 71.2501 31.8213 72.0842 33.3059 73.5688C34.7906 75.0535 35.6247 77.0671 35.6247 79.1667C35.6247 81.2664 34.7906 83.28 33.3059 84.7647C31.8213 86.2493 29.8076 87.0834 27.708 87.0834C25.6084 87.0834 23.5947 86.2493 22.1101 84.7647C20.6254 83.28 19.7913 81.2664 19.7913 79.1667C19.7913 74.773 23.3143 71.2501 27.708 71.2501ZM63.333 43.5417L74.3372 23.7501H24.3038L33.6455 43.5417H63.333Z" fill="black"/>
</svg>
