<svg width="81" height="81" viewBox="0 0 81 81" fill="none" xmlns="http://www.w3.org/2000/svg">
<path fill-rule="evenodd" clip-rule="evenodd" d="M33.3431 13.0931C34.7591 11.6781 36.5627 10.7146 38.5261 10.3243C40.4895 9.93405 42.5245 10.1346 44.374 10.9005C46.2235 11.6664 47.8044 12.9634 48.917 14.6275C50.0296 16.2916 50.624 18.2482 50.625 20.25H30.375C30.375 17.5654 31.4396 14.985 33.3431 13.0931ZM21.6964 20.25C21.6964 15.263 23.6775 10.4802 27.2039 6.95385C30.7302 3.4275 35.513 1.44641 40.5 1.44641C45.487 1.44641 50.2698 3.4275 53.7961 6.95385C57.3225 10.4802 59.3036 15.263 59.3036 20.25H66.5357C70.3719 20.25 74.0509 21.7739 76.7635 24.4865C79.4761 27.1991 81 30.8781 81 34.7143V66.5357C81 70.3719 79.4761 74.0509 76.7635 76.7635C74.0509 79.4761 70.3719 81 66.5357 81H14.4643C10.6281 81 6.94907 79.4761 4.23649 76.7635C1.52391 74.0509 0 70.3719 0 66.5357L0 34.7143C0 30.8781 1.52391 27.1991 4.23649 24.4865C6.94907 21.7739 10.6281 20.25 14.4643 20.25H21.6964ZM38.5618 37.9948C39.2534 37.7073 40.0003 37.5769 40.7484 37.613C41.4965 37.6491 42.2273 37.8507 42.8881 38.2033C43.5489 38.556 44.1233 39.0509 44.5697 39.6523C45.0161 40.2537 45.3235 40.9467 45.4697 41.6813C45.6159 42.4159 45.5973 43.1738 45.4152 43.9004C45.2332 44.6269 44.8921 45.304 44.4167 45.8828C43.9413 46.4616 43.3434 46.9277 42.6661 47.2475C41.9888 47.5673 41.249 47.7328 40.5 47.7321C39.541 47.7321 38.6212 48.1131 37.9431 48.7912C37.2649 49.4694 36.8839 50.3892 36.8839 51.3482V57.1339C36.8839 58.093 37.2649 59.0127 37.9431 59.6909C38.6212 60.369 39.541 60.75 40.5 60.75C41.459 60.75 42.3788 60.369 43.0569 59.6909C43.7351 59.0127 44.1161 58.093 44.1161 57.1339V54.4204C46.291 53.7511 48.2375 52.4914 49.7389 50.7814C51.2403 49.0714 52.2376 46.9783 52.6199 44.7351C53.0022 42.4918 52.7544 40.1865 51.9042 38.0758C51.0539 35.965 49.6346 34.1316 47.8041 32.7797C45.9736 31.4279 43.8039 30.6105 41.5364 30.4187C39.2689 30.2269 36.9927 30.6681 34.9612 31.6933C32.9296 32.7184 31.2224 34.2873 30.0296 36.2252C28.8369 38.1631 28.2053 40.3941 28.2054 42.6696C28.2054 43.6287 28.5863 44.5484 29.2645 45.2266C29.9426 45.9047 30.8624 46.2857 31.8214 46.2857C32.7805 46.2857 33.7002 45.9047 34.3784 45.2266C35.0565 44.5484 35.4375 43.6287 35.4375 42.6696C35.4379 41.6688 35.7349 40.6906 36.291 39.8586C36.847 39.0265 37.6373 38.3779 38.5618 37.9948ZM40.5116 74.4911C39.9417 74.4911 39.3775 74.3788 38.851 74.1607C38.3245 73.9427 37.8462 73.623 37.4432 73.2201C37.0403 72.8172 36.7207 72.3388 36.5026 71.8123C36.2845 71.2859 36.1723 70.7216 36.1723 70.1518C36.1723 69.5819 36.2845 69.0177 36.5026 68.4912C36.7207 67.9647 37.0403 67.4864 37.4432 67.0834C37.8462 66.6805 38.3245 66.3609 38.851 66.1428C39.3775 65.9247 39.9417 65.8125 40.5116 65.8125C41.6624 65.8125 42.7661 66.2697 43.5799 67.0834C44.3937 67.8972 44.8509 69.0009 44.8509 70.1518C44.8509 71.3026 44.3937 72.4063 43.5799 73.2201C42.7661 74.0339 41.6624 74.4911 40.5116 74.4911Z" fill="black"/>
</svg>
