<svg width="87" height="87" viewBox="0 0 87 87" fill="none" xmlns="http://www.w3.org/2000/svg">
<g clip-path="url(#clip0_291_10818)">
<path d="M57.7464 67.2075C57.3845 66.3194 56.6853 65.6109 55.802 65.2372C54.9188 64.8635 53.9234 64.8551 53.034 65.2138C46.9261 67.6601 40.1106 67.6601 34.0027 65.2138C33.5624 65.0329 33.0907 64.9405 32.6147 64.9418C32.1386 64.9432 31.6675 65.0384 31.2282 65.2218C30.7889 65.4053 30.3901 65.6735 30.0545 66.011C29.7188 66.3486 29.453 66.749 29.2721 67.1894C29.0912 67.6297 28.9988 68.1014 29.0002 68.5774C29.0016 69.0535 29.0967 69.5246 29.2801 69.9639C29.4636 70.4031 29.7318 70.802 30.0694 71.1376C30.407 71.4732 30.8074 71.7391 31.2477 71.92C39.1057 75.1042 47.8947 75.1042 55.7527 71.92C56.6408 71.558 57.3493 70.8588 57.723 69.9756C58.0967 69.0923 58.1051 68.097 57.7464 67.2075ZM57.7827 20.6987C61.2028 23.0277 64.0014 26.1577 65.9348 29.8159C67.8682 33.4742 68.8776 37.5498 68.8752 41.6875C68.8669 42.7532 68.8064 43.8178 68.6939 44.8775C68.6368 45.3535 68.674 45.8362 68.8034 46.2978C68.9328 46.7595 69.1519 47.1912 69.4481 47.5682C69.7443 47.9452 70.1119 48.2601 70.5298 48.4951C70.9478 48.73 71.4079 48.8804 71.8839 48.9375C72.36 48.9946 72.8426 48.9574 73.3043 48.828C73.7659 48.6986 74.1976 48.4796 74.5746 48.1834C74.9516 47.8871 75.2666 47.5196 75.5015 47.1016C75.7365 46.6837 75.8868 46.2235 75.9439 45.7475C76.0992 44.4001 76.1598 43.0434 76.1252 41.6875C76.1275 36.3716 74.8308 31.1356 72.3479 26.4351C69.865 21.7347 66.2711 17.7121 61.8789 14.7175C61.4864 14.4416 61.0431 14.2463 60.5746 14.143C60.106 14.0397 59.6217 14.0305 59.1495 14.1158C58.6774 14.2011 58.2269 14.3793 57.8242 14.6401C57.4214 14.9008 57.0744 15.2389 56.8033 15.6348C56.5322 16.0306 56.3424 16.4763 56.2449 16.9461C56.1474 17.4158 56.144 17.9003 56.2351 18.3713C56.3262 18.8424 56.5099 19.2907 56.7756 19.6902C57.0412 20.0897 57.3836 20.4325 57.7827 20.6987ZM15.1527 48.9012C16.1034 48.7834 16.9687 48.294 17.5597 47.54C18.1506 46.786 18.4191 45.8288 18.3064 44.8775C18.2544 43.8148 18.2544 42.7502 18.3064 41.6875C18.2838 37.5659 19.2655 33.5009 21.1667 29.8439C23.0678 26.1869 25.8311 23.048 29.2177 20.6987C29.6168 20.4325 29.9592 20.0897 30.2248 19.6902C30.4905 19.2907 30.6742 18.8424 30.7653 18.3713C30.8564 17.9003 30.853 17.4158 30.7555 16.9461C30.658 16.4763 30.4681 16.0306 30.1971 15.6348C29.926 15.2389 29.579 14.9008 29.1762 14.6401C28.7735 14.3793 28.323 14.2011 27.8509 14.1158C27.3787 14.0305 26.8944 14.0397 26.4258 14.143C25.9573 14.2463 25.5139 14.4416 25.1214 14.7175C20.7293 17.7121 17.1354 21.7347 14.6525 26.4351C12.1696 31.1356 10.8729 36.3716 10.8752 41.6875C10.8646 43.0451 10.9494 44.4018 11.1289 45.7475C11.2468 46.6982 11.7362 47.5635 12.4902 48.1545C13.2442 48.7454 14.2014 49.0139 15.1527 48.9012ZM56.8039 34.4375C56.9416 34.4418 57.0785 34.4147 57.2041 34.3581C57.3298 34.3016 57.4408 34.2172 57.5289 34.1112C57.6099 34.0037 57.6678 33.8805 57.699 33.7495C57.7301 33.6185 57.734 33.4825 57.7102 33.35C56.9778 30.0921 55.1593 27.1802 52.5533 25.0923C49.9473 23.0045 46.7089 21.8649 43.3697 21.8607C40.0305 21.8565 36.7892 22.9879 34.1779 25.0691C31.5667 27.1504 29.7408 30.0577 29.0002 33.3137C28.9394 33.4379 28.9078 33.5743 28.9078 33.7125C28.9078 33.8507 28.9394 33.9871 29.0002 34.1112C29.1787 34.3053 29.4257 34.4223 29.6889 34.4375H56.8039ZM34.4377 9.0625C34.4377 11.466 35.3925 13.7711 37.092 15.4707C38.7916 17.1702 41.0967 18.125 43.5002 18.125C45.9037 18.125 48.2088 17.1702 49.9084 15.4707C51.6079 13.7711 52.5627 11.466 52.5627 9.0625C52.5627 6.65898 51.6079 4.35389 49.9084 2.65434C48.2088 0.954796 45.9037 0 43.5002 0C41.0967 0 38.7916 0.954796 37.092 2.65434C35.3925 4.35389 34.4377 6.65898 34.4377 9.0625ZM72.5002 74.3125C69.1184 74.2858 65.8307 75.4245 63.1899 77.5371C60.5491 79.6497 58.7164 82.6074 58.0002 85.9125C57.9736 86.0427 57.9759 86.1772 58.0071 86.3063C58.0382 86.4355 58.0974 86.5563 58.1804 86.6601C58.2635 86.7638 58.3683 86.8481 58.4875 86.9068C58.6067 86.9656 58.7373 86.9974 58.8702 87H85.9127C86.1869 86.9866 86.4459 86.8701 86.6377 86.6738C86.6915 86.5477 86.7193 86.4121 86.7193 86.275C86.7193 86.1379 86.6915 86.0023 86.6377 85.8763C85.9278 82.6383 84.1456 79.7348 81.5797 77.636C79.0139 75.5373 75.8146 74.3662 72.5002 74.3125ZM63.5464 61.625C63.5464 64.0285 64.5012 66.3336 66.2008 68.0332C67.9003 69.7327 70.2054 70.6875 72.6089 70.6875C75.0125 70.6875 77.3176 69.7327 79.0171 68.0332C80.7167 66.3336 81.6714 64.0285 81.6714 61.625C81.6714 59.2215 80.7167 56.9164 79.0171 55.2168C77.3176 53.5173 75.0125 52.5625 72.6089 52.5625C70.2054 52.5625 67.9003 53.5173 66.2008 55.2168C64.5012 56.9164 63.5464 59.2215 63.5464 61.625ZM14.5002 74.3125C11.1184 74.2858 7.83066 75.4245 5.18988 77.5371C2.5491 79.6497 0.716445 82.6074 0.000197515 85.9125C-0.0527373 86.0324 -0.0800781 86.162 -0.0800781 86.2931C-0.0800781 86.4242 -0.0527373 86.5538 0.000197515 86.6738C0.117186 86.8439 0.288761 86.969 0.486524 87.0283C0.684287 87.0876 0.89638 87.0776 1.0877 87H28.0939C28.2337 87.0041 28.3725 86.9758 28.4995 86.9174C28.6265 86.8589 28.7382 86.7719 28.826 86.663C28.9137 86.5542 28.9751 86.4266 29.0053 86.2901C29.0356 86.1536 29.0338 86.0119 29.0002 85.8763C28.2705 82.581 26.4331 79.6355 23.7944 77.5312C21.1557 75.4268 17.8752 74.2907 14.5002 74.3125ZM5.69145 61.625C5.69145 64.0285 6.64624 66.3336 8.34579 68.0332C10.0453 69.7327 12.3504 70.6875 14.7539 70.6875C17.1575 70.6875 19.4626 69.7327 21.1621 68.0332C22.8617 66.3336 23.8164 64.0285 23.8164 61.625C23.8164 59.2215 22.8617 56.9164 21.1621 55.2168C19.4626 53.5173 17.1575 52.5625 14.7539 52.5625C12.3504 52.5625 10.0453 53.5173 8.34579 55.2168C6.64624 56.9164 5.69145 59.2215 5.69145 61.625Z" fill="black"/>
</g>
<defs>
<clipPath id="clip0_291_10818">
<rect width="87" height="87" fill="white"/>
</clipPath>
</defs>
</svg>
