<svg width="108" height="108" viewBox="0 0 108 108" fill="none" xmlns="http://www.w3.org/2000/svg">
<path d="M76.05 13.5C77.2698 13.4994 78.4468 13.9491 79.3553 14.763C80.2639 15.5769 80.8399 16.6975 80.973 17.91L81 18.45V31.5H85.5C88.9435 31.4998 92.2568 32.8155 94.7622 35.1778C97.2675 37.5401 98.7755 40.7705 98.9775 44.208L99 45V76.5C99.0007 78.7706 98.1432 80.9576 96.5993 82.6225C95.0554 84.2874 92.9392 85.3072 90.675 85.4775L90 85.5H81V94.05C81.0006 95.2698 80.5509 96.4468 79.737 97.3553C78.9231 98.2639 77.8025 98.8399 76.59 98.973L76.05 99H31.95C30.7302 99.0006 29.5532 98.5509 28.6447 97.737C27.7361 96.9231 27.1601 95.8025 27.027 94.59L27 94.05V85.5H18C15.7294 85.5007 13.5424 84.6432 11.8775 83.0993C10.2126 81.5554 9.19279 79.4392 9.0225 77.175L9 76.5V45C8.99981 41.5566 10.3155 38.2432 12.6778 35.7378C15.0401 33.2325 18.2705 31.7245 21.708 31.5225L22.5 31.5H27V18.45C26.9994 17.2302 27.4491 16.0532 28.263 15.1447C29.0769 14.2361 30.1975 13.6601 31.41 13.527L31.95 13.5H76.05ZM72 72H36V90H72V72ZM85.5 40.5H22.5C21.3978 40.5001 20.334 40.9048 19.5103 41.6372C18.6867 42.3696 18.1605 43.3789 18.0315 44.4735L18 45V76.5H27V67.95C26.9994 66.7302 27.4491 65.5532 28.263 64.6447C29.0769 63.7361 30.1975 63.1601 31.41 63.027L31.95 63H76.05C77.2698 62.9994 78.4468 63.4491 79.3553 64.263C80.2639 65.0769 80.8399 66.1975 80.973 67.41L81 67.95V76.5H90V45C90 43.8065 89.5259 42.6619 88.682 41.818C87.8381 40.9741 86.6935 40.5 85.5 40.5ZM76.5 45C77.647 45.0013 78.7501 45.4405 79.5842 46.2278C80.4182 47.0152 80.9201 48.0913 80.9873 49.2363C81.0545 50.3813 80.682 51.5087 79.9458 52.3882C79.2097 53.2678 78.1654 53.833 77.0265 53.9685L76.5 54H67.5C66.353 53.9987 65.2499 53.5595 64.4158 52.7722C63.5818 51.9848 63.0799 50.9087 63.0127 49.7637C62.9455 48.6187 63.318 47.4913 64.0542 46.6118C64.7903 45.7322 65.8346 45.167 66.9735 45.0315L67.5 45H76.5ZM72 22.5H36V31.5H72V22.5Z" fill="black"/>
</svg>
