<svg width="120" height="120" viewBox="0 0 120 120" fill="none" xmlns="http://www.w3.org/2000/svg">
<path d="M52.5 90.0586V54.8438L15 36.0938V87.6562L46.875 103.652L45.0586 111.094L7.5 92.3438V27.6562L56.25 3.33984L105 27.6562V43.4766C102.266 43.9062 99.7656 44.7852 97.5 46.1133V36.0938L60 54.8438V82.5586L52.5 90.0586ZM44.1797 17.6953L78.3984 37.2656L92.8711 30L56.25 11.6602L44.1797 17.6953ZM56.25 48.3398L70.3125 41.3086L36.0938 21.7383L19.6289 30L56.25 48.3398ZM108.281 52.5C109.922 52.5 111.445 52.793 112.852 53.3789C114.258 53.9648 115.508 54.7656 116.602 55.7812C117.695 56.7969 118.516 58.0273 119.062 59.4727C119.609 60.918 119.922 62.4609 120 64.1016C120 65.625 119.707 67.1094 119.121 68.5547C118.535 70 117.695 71.2695 116.602 72.3633L74.5898 114.375L52.5 119.883L58.0078 97.793L100.02 55.8398C101.152 54.707 102.422 53.8672 103.828 53.3203C105.234 52.7734 106.719 52.5 108.281 52.5ZM111.27 67.0898C112.09 66.2695 112.5 65.2734 112.5 64.1016C112.5 62.8906 112.109 61.9141 111.328 61.1719C110.547 60.4297 109.531 60.0391 108.281 60C107.734 60 107.207 60.0781 106.699 60.2344C106.191 60.3906 105.742 60.6836 105.352 61.1133L64.8047 101.66L62.8125 109.57L70.7227 107.578L111.27 67.0898Z" fill="black"/>
</svg>
