<svg width="44" height="44" viewBox="0 0 44 44" fill="none" xmlns="http://www.w3.org/2000/svg">
<path d="M34.8327 7.33341H31.166V5.50008C31.166 5.01385 30.9729 4.54754 30.629 4.20372C30.2852 3.8599 29.8189 3.66675 29.3327 3.66675C28.8465 3.66675 28.3801 3.8599 28.0363 4.20372C27.6925 4.54754 27.4993 5.01385 27.4993 5.50008V7.33341H16.4993V5.50008C16.4993 5.01385 16.3062 4.54754 15.9624 4.20372C15.6186 3.8599 15.1522 3.66675 14.666 3.66675C14.1798 3.66675 13.7135 3.8599 13.3697 4.20372C13.0258 4.54754 12.8327 5.01385 12.8327 5.50008V7.33341H9.16602C7.70732 7.33341 6.30838 7.91288 5.27693 8.94433C4.24548 9.97578 3.66602 11.3747 3.66602 12.8334V34.8334C3.66602 36.2921 4.24548 37.6911 5.27693 38.7225C6.30838 39.754 7.70732 40.3334 9.16602 40.3334H34.8327C36.2914 40.3334 37.6903 39.754 38.7218 38.7225C39.7532 37.6911 40.3327 36.2921 40.3327 34.8334V12.8334C40.3327 11.3747 39.7532 9.97578 38.7218 8.94433C37.6903 7.91288 36.2914 7.33341 34.8327 7.33341ZM36.666 34.8334C36.666 35.3196 36.4729 35.786 36.129 36.1298C35.7852 36.4736 35.3189 36.6667 34.8327 36.6667H9.16602C8.67979 36.6667 8.21347 36.4736 7.86965 36.1298C7.52584 35.786 7.33268 35.3196 7.33268 34.8334V22.0001H36.666V34.8334ZM36.666 18.3334H7.33268V12.8334C7.33268 12.3472 7.52584 11.8809 7.86965 11.5371C8.21347 11.1932 8.67979 11.0001 9.16602 11.0001H12.8327V12.8334C12.8327 13.3196 13.0258 13.786 13.3697 14.1298C13.7135 14.4736 14.1798 14.6667 14.666 14.6667C15.1522 14.6667 15.6186 14.4736 15.9624 14.1298C16.3062 13.786 16.4993 13.3196 16.4993 12.8334V11.0001H27.4993V12.8334C27.4993 13.3196 27.6925 13.786 28.0363 14.1298C28.3801 14.4736 28.8465 14.6667 29.3327 14.6667C29.8189 14.6667 30.2852 14.4736 30.629 14.1298C30.9729 13.786 31.166 13.3196 31.166 12.8334V11.0001H34.8327C35.3189 11.0001 35.7852 11.1932 36.129 11.5371C36.4729 11.8809 36.666 12.3472 36.666 12.8334V18.3334Z" fill="#FE6949"/>
</svg>
