<svg width="17" height="22" viewBox="0 0 17 22" fill="none" xmlns="http://www.w3.org/2000/svg">
<path d="M15.1669 6.47114C15.7203 5.93403 15.7203 5.06177 15.1669 4.52466C14.6135 3.98755 13.7148 3.98755 13.1615 4.52466L8.49974 9.05356L3.83359 4.52896C3.28021 3.99185 2.38151 3.99185 1.82812 4.52896C1.27474 5.06606 1.27474 5.93833 1.82812 6.47544L6.49427 11L1.83255 15.529C1.27917 16.0661 1.27917 16.9383 1.83255 17.4754C2.38594 18.0126 3.28464 18.0126 3.83802 17.4754L8.49974 12.9465L13.1659 17.4711C13.7193 18.0083 14.618 18.0083 15.1714 17.4711C15.7247 16.934 15.7247 16.0618 15.1714 15.5247L10.5052 11L15.1669 6.47114Z" fill="#7C7C7C"/>
</svg>
