<svg width="50" height="50" viewBox="0 0 50 50" fill="none" xmlns="http://www.w3.org/2000/svg">
<path d="M45.4623 15.4813C45.2707 15.2043 45.0148 14.978 44.7166 14.8216C44.4183 14.6652 44.0866 14.5835 43.7498 14.5834H15.2769L12.8728 8.81252C12.5584 8.05191 12.0249 7.40206 11.34 6.94572C10.6551 6.48937 9.84991 6.2472 9.02692 6.25002H4.1665V10.4167H9.02692L18.9103 34.1354C19.0686 34.5149 19.3356 34.8391 19.6778 35.0671C20.02 35.2951 20.422 35.4167 20.8332 35.4167H37.4998C38.3686 35.4167 39.1457 34.8771 39.4519 34.0667L45.7019 17.4C45.82 17.0847 45.8599 16.7453 45.8182 16.4112C45.7765 16.077 45.6544 15.7579 45.4623 15.4813ZM36.0561 31.25H22.2228L17.0144 18.75H40.7436L36.0561 31.25Z" fill="white"/>
<path d="M21.875 43.75C23.6009 43.75 25 42.3509 25 40.625C25 38.8991 23.6009 37.5 21.875 37.5C20.1491 37.5 18.75 38.8991 18.75 40.625C18.75 42.3509 20.1491 43.75 21.875 43.75Z" fill="white"/>
<path d="M36.4585 43.75C38.1844 43.75 39.5835 42.3509 39.5835 40.625C39.5835 38.8991 38.1844 37.5 36.4585 37.5C34.7326 37.5 33.3335 38.8991 33.3335 40.625C33.3335 42.3509 34.7326 43.75 36.4585 43.75Z" fill="white"/>
</svg>
