<svg width="27" height="27" viewBox="0 0 27 27" fill="none" xmlns="http://www.w3.org/2000/svg">
<path fill-rule="evenodd" clip-rule="evenodd" d="M19.4072 11.8125C19.4072 12.8097 19.2108 13.7972 18.8292 14.7185C18.4475 15.6398 17.8882 16.4769 17.183 17.1821C16.4779 17.8872 15.6408 18.4466 14.7195 18.8282C13.7981 19.2098 12.8107 19.4062 11.8135 19.4062C10.8162 19.4062 9.82877 19.2098 8.90745 18.8282C7.98614 18.4466 7.14901 17.8872 6.44386 17.1821C5.73872 16.4769 5.17937 15.6398 4.79775 14.7185C4.41612 13.7972 4.21971 12.8097 4.21971 11.8125C4.21971 9.79849 5.01976 7.86699 6.44386 6.44289C7.86797 5.01878 9.79947 4.21873 11.8135 4.21873C13.8274 4.21873 15.7589 5.01878 17.183 6.44289C18.6072 7.86699 19.4072 9.79849 19.4072 11.8125ZM18.0235 19.8112C15.989 21.3907 13.429 22.1354 10.8647 21.8938C8.30047 21.6523 5.92466 20.4425 4.22097 18.5108C2.51728 16.5792 1.61379 14.0709 1.69442 11.4965C1.77506 8.92213 2.83376 6.47527 4.655 4.65403C6.47624 2.83278 8.92311 1.77408 11.4975 1.69344C14.0718 1.61281 16.5802 2.5163 18.5118 4.21999C20.4435 5.92369 21.6532 8.2995 21.8948 10.8638C22.1364 13.428 21.3917 15.988 19.8122 18.0225L24.5203 22.7306C24.6447 22.8465 24.7444 22.9862 24.8136 23.1414C24.8828 23.2967 24.92 23.4643 24.923 23.6342C24.926 23.8042 24.8947 23.973 24.831 24.1306C24.7674 24.2881 24.6726 24.4313 24.5525 24.5515C24.4323 24.6717 24.2891 24.7664 24.1315 24.8301C23.9739 24.8937 23.8051 24.925 23.6352 24.922C23.4653 24.919 23.2977 24.8818 23.1424 24.8126C22.9872 24.7434 22.8475 24.6437 22.7316 24.5194L18.0235 19.8112Z" fill="#6A7282"/>
</svg>
