<svg width="48" height="48" viewBox="0 0 48 48" fill="none" xmlns="http://www.w3.org/2000/svg">
<path d="M46.0108 22.7998C46.0603 22.6228 46.1188 22.4503 46.1608 22.2703L46.1818 22.1623C46.6108 20.4327 46.6094 18.6242 46.1777 16.8952C45.7459 15.1662 44.897 13.5693 43.7053 12.2443C42.6073 10.7666 41.1762 9.56875 39.5281 8.74825C37.8801 7.92774 36.0617 7.50773 34.2208 7.52234H34.1428C33.9928 7.52234 33.8248 7.53284 33.6658 7.53734H33.4843C30.3143 7.71436 27.1634 8.14271 24.0613 8.81834L17.3458 7.74584H17.2933C14.0947 7.19266 10.803 7.72043 7.93776 9.24584C6.32438 10.22 4.93831 11.5283 3.87276 13.0828L3.81126 13.1653L3.77376 13.2178C2.36564 15.3067 1.59994 17.7621 1.57116 20.2811C1.54237 22.8001 2.25175 25.2724 3.61176 27.3928C3.58326 27.4438 3.56676 27.5008 3.53976 27.5533C3.40989 27.8135 3.2991 28.0827 3.20826 28.3588C3.16026 28.5088 3.12426 28.6678 3.08976 28.8238C3.06176 28.9508 3.03776 29.0778 3.01776 29.2048C2.99826 29.3636 2.98725 29.5234 2.98476 29.6833C2.98476 29.8123 2.96976 29.9383 2.97576 30.0658C2.98576 30.2338 3.00476 30.4008 3.03276 30.5668C3.05076 30.6853 3.05976 30.8038 3.08676 30.9208C3.13276 31.1058 3.19076 31.2868 3.26076 31.4638C3.29526 31.5583 3.31776 31.6558 3.35976 31.7488C3.48276 32.0238 3.63276 32.2828 3.80976 32.5258C4.48861 33.4974 5.48992 34.1968 6.63576 34.4998C6.59323 35.1394 6.69981 35.7802 6.94709 36.3716C7.19438 36.963 7.57561 37.4889 8.06076 37.9078C8.92041 38.6608 9.97458 39.1567 11.1028 39.3388C11.3353 40.0933 11.7433 40.7818 12.2923 41.3488C13.0414 42.1607 14.0536 42.6815 15.1498 42.8188C15.4108 43.7083 15.9058 44.5123 16.5838 45.1438C17.4193 45.9658 18.5383 46.4338 19.7098 46.4488C20.5711 46.4429 21.4169 46.219 22.1683 45.7978C23.2843 46.4368 24.5923 46.6528 25.8553 46.4068C26.5183 46.2858 27.1465 46.0203 27.6953 45.6291C28.2442 45.2379 28.7001 44.7306 29.0308 44.1433C29.0623 44.0938 29.0803 44.0503 29.1088 44.0008C30.3838 44.2618 31.7113 44.0323 32.8258 43.3588C33.8059 42.8055 34.552 41.9155 34.9258 40.8538C36.2668 40.8718 37.5658 40.3888 38.5663 39.4963C39.114 39.0168 39.5394 38.4134 39.807 37.7364C40.0747 37.0594 40.1769 36.3283 40.1053 35.6038C40.1053 35.5618 40.0948 35.5288 40.0918 35.4883C40.8746 35.2537 41.5788 34.8104 42.1288 34.2058C42.8397 33.4561 43.2975 32.5021 43.4374 31.4784C43.5774 30.4547 43.3924 29.4129 42.9088 28.4998C44.2578 26.942 45.2782 25.1277 45.9088 23.1658C45.9448 23.0503 45.9748 22.9243 46.0108 22.7998ZM43.4428 20.2498C43.3675 21.004 43.2018 21.7463 42.9493 22.4608L42.9013 22.6108C42.4024 23.9451 41.6834 25.1862 40.7743 26.2828C36.0688 22.1758 29.2243 16.1818 28.6618 15.6448C28.012 15.0231 27.1491 14.6732 26.2498 14.6668C25.9708 14.6636 25.693 14.7035 25.4263 14.7853C24.4753 15.0853 22.1383 15.8353 20.0983 16.5928C19.3183 16.8823 18.4273 16.1428 18.1558 15.5128C17.9758 15.1348 17.9458 14.7028 18.0688 14.3038C18.3133 13.8613 18.7243 13.5328 19.2103 13.3918C23.8246 11.7699 28.6456 10.8104 33.5293 10.5418H33.7108C33.8773 10.5418 34.0423 10.5298 34.1953 10.5268C35.3155 10.5093 36.4276 10.72 37.4638 11.1463C39.001 11.8448 40.3501 12.8988 41.3998 14.2213C42.3398 15.282 42.9961 16.5633 43.3078 17.9458L43.3213 18.0148C43.3948 18.3839 43.4404 18.7579 43.4578 19.1338C43.4623 19.2553 43.4698 19.4083 43.4698 19.5433C43.4698 19.7608 43.4698 19.9768 43.4443 20.1913L43.4428 20.2498ZM6.01026 30.2383C6.00126 30.1723 5.99776 30.1048 5.99976 30.0358C5.98354 29.8913 5.98354 29.7454 5.99976 29.6008C6.01761 29.5159 6.03913 29.4319 6.06426 29.3488C6.09526 29.2148 6.13826 29.0853 6.19326 28.9603C6.24326 28.8703 6.29976 28.7843 6.36276 28.7023C6.45276 28.5543 6.56026 28.4218 6.68526 28.3048L6.69426 28.2973L9.51576 25.9048C9.70322 25.7605 9.9173 25.6545 10.1458 25.5929C10.3742 25.5314 10.6126 25.5155 10.8472 25.5461C11.0818 25.5768 11.3081 25.6534 11.513 25.7716C11.718 25.8897 11.8977 26.0472 12.0418 26.2348C12.1474 26.3881 12.216 26.5638 12.242 26.7481C12.268 26.9325 12.2508 27.1203 12.1918 27.2968L7.76676 31.6078C7.46135 31.613 7.15979 31.5391 6.89142 31.3932C6.62305 31.2473 6.39701 31.0345 6.23526 30.7753C6.1221 30.6148 6.04531 30.4316 6.01026 30.2383ZM9.78426 33.8308L14.6398 29.0998L14.6173 29.0773C14.8909 28.9426 15.1991 28.8944 15.5008 28.9393C15.8863 29.0443 16.2343 29.2603 16.4998 29.5603C16.7638 29.7853 16.9408 30.0943 17.0008 30.4363C17.0231 30.7828 16.9472 31.1286 16.7818 31.4338L16.7428 31.5613L11.8363 36.3418C11.492 36.3571 11.1484 36.2979 10.829 36.1685C10.5096 36.0391 10.2219 35.8424 9.98526 35.5918C9.79094 35.3462 9.66915 35.0512 9.63363 34.74C9.59812 34.4288 9.65029 34.1139 9.78426 33.8308ZM13.9618 38.4583L19.0318 33.5248C19.3543 33.5893 19.6498 33.7543 19.8748 33.9958C20.1857 34.2681 20.4021 34.6321 20.4928 35.0353C20.5157 35.2088 20.5081 35.385 20.4703 35.5558L16.0858 39.8233C15.7932 39.8774 15.4918 39.8561 15.2097 39.7617C14.9277 39.6672 14.6742 39.5026 14.4733 39.2833C14.2389 39.0535 14.0634 38.7705 13.9618 38.4583ZM18.6673 42.9763C18.3953 42.7373 18.181 42.4399 18.0403 42.1063L22.1818 38.0758C22.4773 38.1733 22.7473 38.3338 22.9738 38.5453C23.1853 38.7143 23.3449 38.9394 23.4343 39.1948C23.4852 39.384 23.4852 39.5832 23.4343 39.7723C23.2477 40.3778 22.9354 40.937 22.5178 41.4133L21.3838 42.7333H21.3928C21.3553 42.7573 21.3133 42.7678 21.2788 42.7948C20.8559 43.1809 20.3117 43.4075 19.7398 43.4353C19.336 43.4284 18.951 43.2636 18.6673 42.9763ZM25.3783 43.4368C25.1563 43.4718 24.9333 43.4818 24.7093 43.4668L24.8203 43.3378L24.8563 43.2943L24.8578 43.2958C25.3119 42.7336 25.6967 42.1186 26.0038 41.4643L26.6668 42.1663C26.6118 42.3083 26.5468 42.4448 26.4718 42.5758C26.3649 42.7916 26.2113 42.9808 26.0222 43.1298C25.833 43.2787 25.6131 43.3836 25.3783 43.4368ZM34.9783 37.8493L32.3098 34.8928C32.0806 34.6247 31.7643 34.446 31.4164 34.3882C31.0684 34.3304 30.7113 34.3971 30.4077 34.5767C30.1042 34.7562 29.8737 35.0371 29.7568 35.3698C29.6399 35.7026 29.6442 36.0659 29.7688 36.3958C29.8382 36.5829 29.9443 36.7543 30.0808 36.8998L32.2348 39.2998C32.2198 39.4538 32.1883 39.6038 32.1403 39.7498C32.0152 40.1747 31.7302 40.5344 31.3453 40.7533C30.8763 41.061 30.3072 41.1769 29.7553 41.0773L27.9553 39.1663C27.7612 38.9615 27.5129 38.8162 27.2393 38.7474C26.9656 38.6786 26.6781 38.6891 26.4103 38.7778C26.3859 38.6324 26.3543 38.4882 26.3158 38.3458C26.0678 37.5622 25.6072 36.8627 24.9853 36.3253C24.5498 35.9271 24.0503 35.605 23.5078 35.3728C23.5162 35.0938 23.4986 34.8146 23.4553 34.5388C23.2616 33.5175 22.7484 32.5841 21.9898 31.8733C21.4382 31.3147 20.7562 30.9023 20.0053 30.6733C20.0133 30.4733 20.0058 30.2733 19.9828 30.0733C19.8422 29.0632 19.3593 28.1318 18.6148 27.4348C17.9366 26.7246 17.0652 26.2287 16.1083 26.0083C15.7828 25.9455 15.4508 25.9228 15.1198 25.9408C15.0023 25.3836 14.7642 24.8588 14.4223 24.4033C14.0372 23.9032 13.5572 23.484 13.0099 23.1696C12.4626 22.8553 11.8586 22.6519 11.2326 22.5713C10.6066 22.4906 9.97088 22.5342 9.36174 22.6995C8.7526 22.8649 8.18206 23.1487 7.68276 23.5348L7.63026 23.5768L5.77776 25.1368C4.9088 23.5551 4.49299 21.7644 4.57609 19.9616C4.65919 18.1588 5.23798 16.4139 6.24876 14.9188L6.28026 14.8738C7.10182 13.6495 8.17907 12.6178 9.43776 11.8498C11.7341 10.6536 14.3638 10.2572 16.9108 10.7233L17.6068 10.8343C16.5788 11.2982 15.7576 12.1242 15.2998 13.1548C15.0785 13.7205 14.9733 14.3248 14.9903 14.9319C15.0073 15.539 15.1462 16.1365 15.3988 16.6888C15.8481 17.7756 16.6861 18.6561 17.7493 19.1586C18.8125 19.6611 20.0248 19.7496 21.1498 19.4068C23.1298 18.6733 25.4008 17.9368 26.2498 17.6683C26.3173 17.6661 26.3844 17.6791 26.4462 17.7064C26.508 17.7336 26.5629 17.7745 26.6068 17.8258C27.3403 18.5158 36.1948 26.2663 39.8938 29.4898L40.1938 29.7463C40.4267 30.1236 40.5263 30.5682 40.4765 31.0088C40.4267 31.4494 40.2305 31.8605 39.9193 32.1763C39.7055 32.4067 39.4248 32.5641 39.1168 32.6263L36.5173 29.9908C36.2343 29.7215 35.8579 29.5727 35.4673 29.5757C35.0767 29.5787 34.7025 29.7334 34.4238 30.007C34.1451 30.2807 33.9836 30.6519 33.9734 31.0424C33.9632 31.4329 34.1052 31.812 34.3693 32.0998L36.8533 34.6168C36.8633 34.6618 36.8753 34.7063 36.8893 34.7503L36.9073 34.7968C37.0194 35.1172 37.0875 35.4512 37.1098 35.7898C37.1515 36.047 37.1295 36.3105 37.0455 36.5572C36.9616 36.8038 36.8183 37.0261 36.6283 37.2043C36.1798 37.6243 35.5873 37.8553 34.9738 37.8493H34.9783Z" fill="black"/>
</svg>
