<svg width="50" height="50" viewBox="0 0 50 50" fill="none" xmlns="http://www.w3.org/2000/svg">
<path d="M41.5625 5.54668C42.1562 6.02325 42.5 6.742 42.5 7.49981V31.2498C42.5 34.7029 39.1406 37.4998 35 37.4998C30.8594 37.4998 27.5 34.7029 27.5 31.2498C27.5 27.7967 30.8594 24.9998 35 24.9998C35.875 24.9998 36.7188 25.1248 37.5 25.3592V16.242L20 20.1326V36.2498C20 39.7029 16.6406 42.4998 12.5 42.4998C8.35938 42.4998 5 39.7029 5 36.2498C5 32.7967 8.35938 29.9998 12.5 29.9998C13.375 29.9998 14.2188 30.1248 15 30.3592V12.4998C15 11.3279 15.8125 10.3123 16.9609 10.0623L39.4609 5.06231C40.2031 4.89825 40.9766 5.07793 41.5703 5.5545L41.5625 5.54668Z" fill="black"/>
</svg>
