<svg width="40" height="40" viewBox="0 0 40 40" fill="none" xmlns="http://www.w3.org/2000/svg">
<path d="M36.2502 23.7498C36.2533 22.0674 35.8296 20.4116 35.0189 18.9373C35.1231 18.7832 35.2119 18.619 35.2852 18.4448C35.4711 18.0002 35.5375 17.5147 35.4777 17.0365C35.4179 16.5583 35.2341 16.104 34.9444 15.7189C34.6548 15.3337 34.2694 15.031 33.8266 14.8408C33.3838 14.6507 32.899 14.5796 32.4202 14.6348C32.6302 14.2115 32.7969 13.7698 32.9202 13.3098L33.8377 9.90107C34.3372 8.31331 34.2348 6.59722 33.5499 5.08015C32.8651 3.56309 31.6457 2.35123 30.1244 1.67574C28.6032 1.00026 26.8865 0.90843 25.3018 1.41777C23.7172 1.92711 22.3755 3.00198 21.5327 4.43732C20.7609 3.3734 19.635 2.61956 18.3573 2.31124C17.0795 2.00292 15.7338 2.16033 14.5617 2.75518C13.3896 3.35003 12.468 4.34334 11.9626 5.55665C11.4571 6.76997 11.4009 8.12376 11.8039 9.37482H8.9402C3.9927 9.37482 2.0502 15.7911 6.16645 18.5348L8.59145 20.1523L6.9002 26.7873C6.68877 27.588 6.66565 28.4267 6.83264 29.2378C6.99962 30.0489 7.35219 30.8103 7.8627 31.4623C8.52977 32.3222 9.44002 32.9615 10.4752 33.2973V37.4998C10.4752 37.8313 10.6069 38.1493 10.8413 38.3837C11.0757 38.6181 11.3937 38.7498 11.7252 38.7498H35.0002C35.3317 38.7498 35.6497 38.6181 35.8841 38.3837C36.1185 38.1493 36.2502 37.8313 36.2502 37.4998V23.7498ZM18.7502 33.5623H22.1502C22.8743 33.5624 23.5695 33.2783 24.0861 32.771C24.6028 32.2637 24.8996 31.5738 24.9127 30.8498C24.9127 30.4794 24.8395 30.1127 24.6974 29.7706C24.5553 29.4286 24.347 29.118 24.0845 28.8567C23.822 28.5953 23.5105 28.3884 23.1678 28.2478C22.8252 28.1072 22.4581 28.0357 22.0877 28.0373H18.7502V24.5886C18.7502 24.3828 18.6995 24.1803 18.6024 23.9988C18.5054 23.8174 18.3651 23.6628 18.1939 23.5486L7.5527 16.4548C5.4952 15.0823 6.46645 11.8748 8.9402 11.8748H12.4877L12.7877 12.9873C13.0737 14.0516 13.6551 15.0132 14.4647 15.7608C15.2744 16.5085 16.2791 17.0117 17.3627 17.2123C18.0673 17.3356 18.7897 17.3122 19.4849 17.1436C20.18 16.975 20.8329 16.6648 21.4027 16.2323C21.4719 16.244 21.5427 16.2498 21.6152 16.2498H26.2502C26.7294 16.2507 27.196 16.294 27.6502 16.3798L24.5127 17.5873C23.9131 17.8203 23.4135 18.2551 23.1003 18.817C22.787 19.3788 22.6796 20.0324 22.7966 20.6649C22.9136 21.2975 23.2477 21.8693 23.7413 22.2819C24.2349 22.6945 24.8569 22.9218 25.5002 22.9248C25.8427 22.9248 26.1814 22.8611 26.5002 22.7373L32.8989 20.2748C33.4427 21.3123 33.7502 22.4961 33.7502 23.7498V36.2498H18.7502V33.5623ZM23.2564 13.7498C23.3039 13.6265 23.3477 13.5015 23.3877 13.3748C23.7152 12.3235 23.7373 11.2007 23.4514 10.1373L22.8914 8.11107L23.1914 6.99357L23.1989 6.96357C23.3207 6.39735 23.5562 5.86178 23.8913 5.38935C24.2263 4.91692 24.6538 4.5175 25.1479 4.21532C25.642 3.91313 26.1923 3.7145 26.7655 3.63146C27.3387 3.54842 27.9227 3.58271 28.4823 3.73226C29.0418 3.8818 29.5651 4.14348 30.0204 4.50141C30.4757 4.85934 30.8536 5.30605 31.131 5.81444C31.4084 6.32283 31.5797 6.88229 31.6343 7.45886C31.689 8.03544 31.6259 8.61711 31.4489 9.16857L31.4402 9.19607L30.5064 12.6648C30.3413 13.2772 30.052 13.849 29.6564 14.3448C28.5642 13.9502 27.4116 13.7489 26.2502 13.7498H23.2564Z" fill="black"/>
</svg>
