<svg width="60" height="60" viewBox="0 0 60 60" fill="none" xmlns="http://www.w3.org/2000/svg">
<path d="M33.75 40C33.75 40.9946 33.3549 41.9484 32.6517 42.6516C31.9484 43.3549 30.9946 43.75 30 43.75C29.0054 43.75 28.0516 43.3549 27.3483 42.6516C26.6451 41.9484 26.25 40.9946 26.25 40C26.25 39.0054 26.6451 38.0516 27.3483 37.3483C28.0516 36.6451 29.0054 36.25 30 36.25C30.9946 36.25 31.9484 36.6451 32.6517 37.3483C33.3549 38.0516 33.75 39.0054 33.75 40Z" fill="black"/>
<path d="M35.8675 1.6499L43.8175 12.7899L49.06 11.0024L53.845 24.9999H56.25V54.9999H3.75V24.9999H5.025V24.9749L6.645 24.9899L35.8675 1.6499ZM23.4925 24.9999H48.5625L45.97 17.4174L42.165 18.6349L23.4925 24.9999ZM19.5975 21.0424L38.875 14.4749L34.865 8.8499L19.5975 21.0424ZM13.75 29.9999H8.75V34.9999C10.0761 34.9999 11.3479 34.4731 12.2855 33.5354C13.2232 32.5978 13.75 31.326 13.75 29.9999ZM38.75 39.9999C38.75 38.8508 38.5237 37.713 38.0839 36.6514C37.6442 35.5898 36.9997 34.6252 36.1872 33.8127C35.3747 33.0002 34.4101 32.3557 33.3485 31.916C32.2869 31.4762 31.1491 31.2499 30 31.2499C28.8509 31.2499 27.7131 31.4762 26.6515 31.916C25.5899 32.3557 24.6253 33.0002 23.8128 33.8127C23.0003 34.6252 22.3558 35.5898 21.9161 36.6514C21.4763 37.713 21.25 38.8508 21.25 39.9999C21.25 42.3205 22.1719 44.5461 23.8128 46.1871C25.4538 47.828 27.6794 48.7499 30 48.7499C32.3206 48.7499 34.5462 47.828 36.1872 46.1871C37.8281 44.5461 38.75 42.3205 38.75 39.9999ZM51.25 49.9999V44.9999C49.9239 44.9999 48.6521 45.5267 47.7145 46.4644C46.7768 47.4021 46.25 48.6738 46.25 49.9999H51.25ZM46.25 29.9999C46.25 31.326 46.7768 32.5978 47.7145 33.5354C48.6521 34.4731 49.9239 34.9999 51.25 34.9999V29.9999H46.25ZM8.75 49.9999H13.75C13.75 48.6738 13.2232 47.4021 12.2855 46.4644C11.3479 45.5267 10.0761 44.9999 8.75 44.9999V49.9999Z" fill="black"/>
</svg>
