<svg width="48" height="48" viewBox="0 0 48 48" fill="none" xmlns="http://www.w3.org/2000/svg">
<path d="M9.36672 6C9.26726 6 9.17188 6.03951 9.10155 6.10983C9.03123 6.18016 8.99172 6.27554 8.99172 6.375V26.625C8.99172 26.832 9.15972 27 9.36672 27H38.6272C38.7267 27 38.8221 26.9605 38.8924 26.8902C38.9627 26.8198 39.0022 26.7245 39.0022 26.625V6.375C39.0022 6.27554 38.9627 6.18016 38.8924 6.10983C38.8221 6.03951 38.7267 6 38.6272 6H9.36672ZM39.4057 31.92L40.4857 36.795C40.5036 36.878 40.5027 36.9638 40.4831 37.0464C40.4636 37.129 40.4258 37.2061 40.3726 37.2723C40.3195 37.3384 40.2522 37.3918 40.1757 37.4286C40.0993 37.4654 40.0156 37.4847 39.9307 37.485H8.06172C7.70172 37.485 7.43172 37.14 7.50672 36.795L8.58672 31.92C8.64672 31.665 8.87172 31.485 9.14172 31.485H38.8522C39.1222 31.485 39.3472 31.665 39.4072 31.92M16.2247 41.985H31.7677C32.0077 41.985 32.1877 41.76 32.1277 41.52L31.5577 39.27C31.5366 39.1899 31.4902 39.1189 31.4252 39.0675C31.3603 39.0161 31.2805 38.9871 31.1977 38.985H16.7947C16.6297 38.985 16.4797 39.105 16.4347 39.27L15.8647 41.52C15.8047 41.76 15.9847 41.985 16.2247 41.985Z" fill="black"/>
<path d="M46.4495 43.0275L43.5005 29.1V4.5C43.5005 4.10591 43.4229 3.71568 43.272 3.3516C43.1212 2.98753 42.9 2.65674 42.6213 2.37815C42.3426 2.09955 42.0117 1.87861 41.6475 1.72793C41.2834 1.57726 40.8931 1.4998 40.499 1.5H7.49001C6.69436 1.5 5.9313 1.81607 5.36869 2.37868C4.80608 2.94129 4.49001 3.70435 4.49001 4.5V29.1L1.55151 43.0275C1.51383 43.2282 1.49674 43.4323 1.50051 43.6365C1.5009 44.3943 1.80148 45.121 2.33646 45.6577C2.87145 46.1944 3.59725 46.4972 4.35501 46.5H43.6355C44.3946 46.4984 45.1222 46.1963 45.6591 45.6596C46.196 45.123 46.4985 44.3956 46.5005 43.6365C46.5005 43.4415 46.4915 43.218 46.4495 43.0275ZM40.499 4.5V28.5H7.49001V4.5H40.499ZM43.472 43.5H4.51551L7.36401 30H40.6235L43.472 43.5Z" fill="black"/>
</svg>
