<svg width="57" height="57" viewBox="0 0 57 57" fill="none" xmlns="http://www.w3.org/2000/svg">
<path d="M26.125 14.25C33.3483 14.4361 40.408 12.0828 46.075 7.6C46.4279 7.33536 46.8474 7.17421 47.2867 7.1346C47.726 7.09499 48.1676 7.17849 48.5621 7.37574C48.9566 7.57299 49.2884 7.8762 49.5203 8.25139C49.7522 8.62658 49.875 9.05894 49.875 9.5V38C49.875 38.4411 49.7522 38.8734 49.5203 39.2486C49.2884 39.6238 48.9566 39.927 48.5621 40.1243C48.1676 40.3215 47.726 40.405 47.2867 40.3654C46.8474 40.3258 46.4279 40.1646 46.075 39.9C40.408 35.4172 33.3483 33.0639 26.125 33.25H11.875C10.6152 33.25 9.40704 32.7496 8.51624 31.8588C7.62544 30.968 7.125 29.7598 7.125 28.5V19C7.125 17.7402 7.62544 16.532 8.51624 15.6412C9.40704 14.7504 10.6152 14.25 11.875 14.25H26.125Z" stroke="black" stroke-width="6" stroke-linecap="round" stroke-linejoin="round"/>
<path d="M14.25 33.25C14.25 39.4166 16.2501 45.4168 19.95 50.35C20.7059 51.3578 21.8311 52.0241 23.0782 52.2023C24.3254 52.3804 25.5922 52.0559 26.6 51.3C27.6078 50.5441 28.2741 49.4189 28.4523 48.1718C28.6304 46.9246 28.3059 45.6578 27.55 44.65C25.0834 41.3612 23.75 37.361 23.75 33.25M19 14.25V33.25" stroke="black" stroke-width="6" stroke-linecap="round" stroke-linejoin="round"/>
</svg>
